<svg width="123" height="40" viewBox="0 0 123 40" fill="none" xmlns="http://www.w3.org/2000/svg">
<g clip-path="url(#clip0)">
<path d="M20 0C16.0444 0 12.1776 1.17298 8.8886 3.37061C5.59962 5.56824 3.03617 8.69181 1.52242 12.3463C0.00866572 16.0009 -0.387401 20.0222 0.384303 23.9018C1.15601 27.7814 3.06082 31.3451 5.85787 34.1421C8.65492 36.9392 12.2186 38.844 16.0982 39.6157C19.9778 40.3874 23.9992 39.9913 27.6537 38.4776C31.3082 36.9638 34.4318 34.4004 36.6294 31.1114C38.827 27.8224 40 23.9556 40 20C40 14.6957 37.8929 9.60859 34.1421 5.85786C30.3914 2.10714 25.3043 0 20 0V0ZM20 37.2267C16.5926 37.228 13.2614 36.2188 10.4276 34.3267C7.59378 32.4346 5.38476 29.7446 4.07989 26.597C2.77502 23.4493 2.43293 19.9854 3.09687 16.6433C3.76081 13.3012 5.40097 10.2311 7.80989 7.82127C10.2188 5.41141 13.2883 3.77006 16.6301 3.10483C19.972 2.43959 23.436 2.78035 26.5842 4.084C29.7323 5.38765 32.4231 7.59563 34.3163 10.4287C36.2095 13.2617 37.22 16.5926 37.22 20C37.22 24.5676 35.406 28.9483 32.1768 32.1787C28.9476 35.4092 24.5677 37.2249 20 37.2267V37.2267Z" fill="white"/>
<path d="M33.1533 23.3066H33.3533V23.74H33.46V23.3066H33.66V23.22H33.1533V23.3066Z" fill="white"/>
<path d="M9.33302 25.2267H8.14636C7.88636 25.2267 7.75969 25.0867 7.75969 24.8001V24.3467C7.75381 24.2848 7.7602 24.2223 7.7785 24.1628C7.7968 24.1033 7.82666 24.048 7.86636 24.0001C7.89944 23.958 7.94216 23.9246 7.99089 23.9025C8.03962 23.8805 8.09295 23.8705 8.14636 23.8734H9.04636C9.1429 23.8674 9.23847 23.8955 9.31643 23.9528C9.39439 24.01 9.44981 24.0928 9.47302 24.1867L9.59302 24.6267H10.4264V24.1401C10.43 23.9904 10.4029 23.8416 10.3467 23.7028C10.2906 23.5641 10.2065 23.4383 10.0997 23.3334C9.99452 23.2293 9.86952 23.1473 9.73211 23.0923C9.5947 23.0374 9.44766 23.0105 9.29969 23.0134H7.96636C7.81478 23.0117 7.66446 23.041 7.52461 23.0995C7.38475 23.1579 7.25831 23.2443 7.15302 23.3534C7.04457 23.456 6.95887 23.5802 6.90145 23.718C6.84403 23.8558 6.81617 24.0041 6.81969 24.1534V24.9334C6.81554 25.0847 6.84305 25.2352 6.90045 25.3753C6.95785 25.5153 7.04388 25.6418 7.15302 25.7467C7.25831 25.8558 7.38475 25.9422 7.52461 26.0007C7.66446 26.0591 7.81478 26.0884 7.96636 26.0867H9.11969C9.37302 26.0867 9.49969 26.2334 9.49969 26.5201V27.1134C9.5043 27.2263 9.46888 27.3373 9.39969 27.4267C9.3659 27.4679 9.32306 27.5008 9.27449 27.5228C9.22593 27.5447 9.17296 27.5552 9.11969 27.5534H8.19302C8.09635 27.5654 7.9987 27.5405 7.9196 27.4837C7.8405 27.4268 7.78577 27.3422 7.76636 27.2467L7.64636 26.7467H6.81302V27.3334C6.8084 27.4826 6.83438 27.6312 6.88937 27.77C6.94435 27.9087 7.02717 28.0348 7.13273 28.1403C7.23829 28.2459 7.36434 28.3287 7.50312 28.3837C7.64191 28.4387 7.79048 28.4647 7.93969 28.4601H9.27302C9.42327 28.4637 9.57263 28.4359 9.71153 28.3785C9.85043 28.3211 9.97583 28.2354 10.0797 28.1267C10.1875 28.0209 10.2727 27.8942 10.33 27.7543C10.3873 27.6145 10.4156 27.4645 10.413 27.3134V26.3801C10.4139 26.2286 10.3843 26.0785 10.3259 25.9388C10.2675 25.799 10.1815 25.6725 10.073 25.5667C9.87976 25.3618 9.61444 25.2398 9.33302 25.2267V25.2267Z" fill="white"/>
<path d="M13.9996 23.0399H11.5596V28.4399H12.5129V26.4399H13.9996C14.3062 26.4415 14.601 26.3217 14.8196 26.1066C14.9271 26.0005 15.0121 25.8737 15.0694 25.734C15.1266 25.5942 15.1551 25.4443 15.1529 25.2932V24.1599C15.1548 24.0109 15.1262 23.863 15.0689 23.7254C15.0116 23.5879 14.9267 23.4635 14.8196 23.3599C14.7109 23.2549 14.5825 23.1725 14.4417 23.1176C14.3009 23.0626 14.1506 23.0362 13.9996 23.0399V23.0399ZM14.1996 25.1466C14.202 25.2635 14.1617 25.3773 14.0862 25.4666C14.0528 25.506 14.0108 25.5374 13.9634 25.5582C13.9161 25.5789 13.8646 25.5887 13.8129 25.5866H12.5129V23.9132H13.8129C13.8653 23.9108 13.9175 23.9211 13.965 23.9432C14.0126 23.9652 14.0542 23.9984 14.0862 24.0399C14.1624 24.1262 14.2029 24.2382 14.1996 24.3532V25.1466Z" fill="white"/>
<path d="M24.2269 25.7867C24.3614 25.5904 24.4335 25.358 24.4336 25.12V24.18C24.4358 24.0303 24.4067 23.8818 24.3482 23.744C24.2896 23.6063 24.2029 23.4823 24.0936 23.38C23.989 23.27 23.8627 23.1829 23.7227 23.1244C23.5826 23.0658 23.432 23.0371 23.2802 23.04H20.8936V28.44H21.8469V26.3267H22.7536L23.6336 28.44H24.6669L23.7202 26.2133C23.9223 26.116 24.0966 25.9692 24.2269 25.7867ZM23.4736 25.02C23.4786 25.1351 23.4432 25.2483 23.3736 25.34C23.3392 25.3784 23.2971 25.409 23.2499 25.4297C23.2028 25.4504 23.1517 25.4607 23.1002 25.46H21.8469V23.9133H23.1002C23.1524 23.9125 23.204 23.9235 23.2514 23.9454C23.2987 23.9673 23.3405 23.9997 23.3736 24.04C23.4427 24.1294 23.4782 24.2404 23.4736 24.3533V25.02Z" fill="white"/>
<path d="M25.0332 23.9134H26.4065V28.44H27.3599V23.9134H28.7465V23.04H25.0332V23.9134Z" fill="white"/>
<path d="M31.9265 25.2265H30.7798C30.5198 25.2265 30.3931 25.0865 30.3931 24.7999V24.3465C30.3892 24.2316 30.4244 24.1188 30.4931 24.0265C30.5279 23.9848 30.5719 23.9517 30.6216 23.9297C30.6714 23.9077 30.7255 23.8975 30.7798 23.8999H31.6798C31.7763 23.8939 31.8719 23.922 31.9499 23.9793C32.0278 24.0365 32.0832 24.1193 32.1065 24.2132L32.2265 24.6532H33.0598V24.1665C33.0625 24.0173 33.035 23.869 32.979 23.7306C32.9229 23.5922 32.8394 23.4666 32.7335 23.3614C32.6276 23.2561 32.5016 23.1734 32.3629 23.1181C32.2242 23.0629 32.0757 23.0363 31.9265 23.0399H30.5931C30.2901 23.0416 29.9997 23.1618 29.7842 23.3749C29.5686 23.5879 29.445 23.8769 29.4398 24.1799V24.9599C29.4385 25.1114 29.468 25.2616 29.5264 25.4014C29.5848 25.5412 29.671 25.6677 29.7798 25.7732C29.8843 25.8832 30.0106 25.9703 30.1507 26.0288C30.2907 26.0873 30.4414 26.1161 30.5931 26.1132H31.7398C31.9998 26.1132 32.1264 26.2599 32.1264 26.5465V27.1399C32.1311 27.2528 32.0956 27.3638 32.0265 27.4532C31.9916 27.495 31.9476 27.5281 31.8979 27.5501C31.8482 27.572 31.7941 27.5822 31.7398 27.5799H30.8265C30.7303 27.5889 30.6341 27.5628 30.5557 27.5064C30.4773 27.4501 30.4219 27.3672 30.3998 27.2732L30.2731 26.7732H29.4398V27.3332C29.4361 27.4829 29.4632 27.6317 29.5194 27.7704C29.5756 27.9092 29.6597 28.0349 29.7665 28.1399C29.8726 28.2445 29.9988 28.3267 30.1373 28.3817C30.2759 28.4367 30.4241 28.4633 30.5731 28.4599H31.9065C32.0576 28.4608 32.2074 28.4317 32.3473 28.3745C32.4872 28.3173 32.6144 28.233 32.7216 28.1264C32.8288 28.0198 32.9138 27.8931 32.9719 27.7536C33.0299 27.614 33.0598 27.4644 33.0598 27.3132V26.3799C33.061 26.2278 33.0308 26.077 32.9712 25.9371C32.9116 25.7971 32.8237 25.671 32.7131 25.5665C32.6119 25.4595 32.49 25.3742 32.3547 25.3157C32.2195 25.2573 32.0738 25.2269 31.9265 25.2265Z" fill="white"/>
<path d="M22.8065 9.25342H12.5265L10.9531 11.7534L21.2265 11.7468L22.8065 9.25342Z" fill="white"/>
<path d="M26.6996 16.7534H25.1596L23.573 19.2601H28.2796L29.8596 21.7534H32.8596L24.9063 9.16675L18.513 19.2601H11.5263L13.133 16.7534H17.473L19.053 14.2534H9.37296L7.79296 16.7534H10.113L6.94629 21.7601L19.9663 21.7534L24.9063 13.9067L26.6996 16.7534Z" fill="white"/>
<path d="M34.2804 23.22L34.0738 23.5333L33.8738 23.22H33.7871V23.74H33.8738V23.42C33.8738 23.42 33.8738 23.38 33.8738 23.36L33.9071 23.4133L34.0738 23.6733L34.2404 23.42C34.2404 23.42 34.2404 23.38 34.2404 23.36C34.2378 23.3799 34.2378 23.4001 34.2404 23.42V23.74H34.3338V23.22H34.2804Z" fill="white"/>
<path d="M18.5796 23.0399H17.2862C17.1336 23.0377 16.9821 23.0667 16.8411 23.1252C16.7001 23.1837 16.5725 23.2703 16.4662 23.3799C16.3591 23.4835 16.2742 23.6079 16.2169 23.7455C16.1596 23.883 16.131 24.0309 16.1329 24.1799V27.2866C16.1311 27.4385 16.1597 27.5893 16.2171 27.73C16.2744 27.8708 16.3593 27.9986 16.4667 28.1061C16.5742 28.2135 16.702 28.2984 16.8428 28.3558C16.9835 28.4131 17.1343 28.4417 17.2862 28.4399H18.5796C18.731 28.4408 18.881 28.4115 19.021 28.3538C19.1609 28.2961 19.288 28.2111 19.3947 28.1037C19.5015 27.9963 19.5858 27.8688 19.6427 27.7285C19.6996 27.5882 19.728 27.438 19.7262 27.2866V24.1799C19.7299 24.0297 19.7021 23.8803 19.6447 23.7414C19.5873 23.6025 19.5015 23.4771 19.3929 23.3732C19.2868 23.2657 19.1601 23.1807 19.0203 23.1235C18.8805 23.0662 18.7306 23.0378 18.5796 23.0399ZM18.7729 27.1266C18.7775 27.2406 18.7394 27.3523 18.6662 27.4399C18.6335 27.4811 18.5919 27.5144 18.5446 27.5375C18.4974 27.5606 18.4455 27.5728 18.3929 27.5732H17.4796C17.4248 27.5743 17.3705 27.5628 17.3208 27.5397C17.2711 27.5166 17.2274 27.4825 17.1929 27.4399C17.1242 27.3502 17.0889 27.2395 17.0929 27.1266V24.3532C17.0883 24.2403 17.1237 24.1293 17.1929 24.0399C17.2277 23.9982 17.2717 23.965 17.3214 23.9431C17.3711 23.9211 17.4253 23.9109 17.4796 23.9132H18.3929C18.4451 23.9124 18.4967 23.9234 18.544 23.9453C18.5914 23.9673 18.6331 23.9996 18.6662 24.0399C18.7406 24.1268 18.7788 24.239 18.7729 24.3532V27.1266Z" fill="white"/>
<path d="M109.554 15.4667H110.387L110.68 14.6533H109.554V13.9H110.954L111.254 13.0867H108.394V16.8133H109.554V15.4667Z" fill="white"/>
<path d="M112.766 13.0867H111.606V16.8133H112.766V13.0867Z" fill="white"/>
<path d="M114.726 15.4667H115.56L115.853 14.6533H114.726V13.9H116.126L116.426 13.0867H113.566V16.8133H114.726V15.4667Z" fill="white"/>
<path d="M116.967 16.8133L117.114 16.3133H118.447L118.6 16.8133H119.767L118.434 13.0867H117.227L115.894 16.8133H116.967ZM117.767 14.0467L118.227 15.6H117.32L117.767 14.0467Z" fill="white"/>
<path d="M119.34 14.04C119.387 14.093 119.447 14.1341 119.513 14.16C119.582 14.1927 119.657 14.2087 119.733 14.2066C119.88 14.2025 120.021 14.143 120.126 14.04C120.179 13.9924 120.221 13.933 120.246 13.8666C120.277 13.7985 120.293 13.7247 120.293 13.65C120.293 13.5753 120.277 13.5014 120.246 13.4333C120.219 13.366 120.178 13.3049 120.126 13.2534C120.075 13.2019 120.014 13.1611 119.946 13.1333C119.878 13.1026 119.804 13.0867 119.73 13.0867C119.655 13.0867 119.581 13.1026 119.513 13.1333C119.447 13.1591 119.387 13.2002 119.34 13.2533C119.237 13.3588 119.177 13.4992 119.173 13.6466C119.171 13.7226 119.187 13.798 119.22 13.8666C119.246 13.933 119.287 13.9924 119.34 14.04ZM119.34 13.4666C119.363 13.4152 119.394 13.3679 119.433 13.3266C119.47 13.2861 119.516 13.2542 119.566 13.2333C119.618 13.2088 119.676 13.1974 119.733 13.2C119.788 13.1967 119.844 13.2082 119.893 13.2333C119.946 13.2541 119.994 13.286 120.033 13.3266C120.07 13.3681 120.099 13.4154 120.12 13.4666C120.164 13.5825 120.164 13.7108 120.12 13.8266C120.1 13.8806 120.071 13.9304 120.033 13.9733C119.992 14.0119 119.945 14.0434 119.893 14.0666C119.843 14.0886 119.788 14.1 119.733 14.1C119.676 14.0992 119.619 14.0879 119.566 14.0666C119.517 14.0433 119.472 14.0118 119.433 13.9733C119.393 13.9308 119.361 13.881 119.34 13.8266C119.295 13.7108 119.295 13.5825 119.34 13.4666V13.4666Z" fill="white"/>
<path d="M119.706 13.6868H119.633L119.646 13.9601H119.526V13.3268H119.766C119.828 13.3218 119.889 13.3383 119.94 13.3735C119.974 13.4094 119.993 13.4571 119.993 13.5068C119.993 13.5564 119.974 13.6042 119.94 13.6401C119.906 13.6685 119.864 13.6849 119.82 13.6868L119.993 13.9601H119.866L119.706 13.6868Z" fill="white"/>
<path d="M109.62 23.4068C109.678 23.4669 109.748 23.5126 109.827 23.5401C110.008 23.6026 110.205 23.6026 110.387 23.5401C110.465 23.5126 110.536 23.4669 110.593 23.4068C110.649 23.3455 110.69 23.2726 110.713 23.1934C110.741 23.105 110.755 23.0128 110.753 22.9201C110.755 22.8252 110.742 22.7307 110.713 22.6401C110.69 22.5609 110.649 22.488 110.593 22.4268C110.534 22.3688 110.464 22.3235 110.387 22.2934C110.205 22.231 110.008 22.231 109.827 22.2934C109.748 22.3205 109.678 22.3662 109.621 22.4266C109.564 22.487 109.523 22.5602 109.5 22.6401C109.466 22.7295 109.45 22.8246 109.453 22.9201C109.451 23.0134 109.467 23.1063 109.5 23.1934C109.524 23.2726 109.565 23.3455 109.62 23.4068ZM109.827 22.7401C109.839 22.6937 109.857 22.649 109.88 22.6068C109.904 22.5694 109.936 22.5376 109.973 22.5134C110.017 22.5019 110.063 22.5019 110.107 22.5134C110.151 22.5027 110.196 22.5027 110.24 22.5134C110.278 22.5376 110.309 22.5694 110.333 22.6068C110.357 22.648 110.373 22.6932 110.38 22.7401C110.387 22.7932 110.387 22.847 110.38 22.9001C110.387 22.951 110.387 23.0025 110.38 23.0534C110.372 23.1 110.356 23.145 110.333 23.1868C110.309 23.2242 110.278 23.256 110.24 23.2801C110.199 23.3021 110.153 23.3136 110.107 23.3134C110.06 23.3145 110.014 23.303 109.973 23.2801C109.936 23.256 109.904 23.2242 109.88 23.1868C109.858 23.144 109.841 23.0994 109.827 23.0534C109.824 23.0024 109.824 22.9512 109.827 22.9001C109.824 22.8535 109.824 22.8067 109.827 22.7601V22.7401Z" fill="white"/>
<path d="M111.38 23.0468H111.88V22.8002H111.38V22.5135H111.9V22.2668H111.033V23.5668H111.38V23.0468Z" fill="white"/>
<path d="M112.507 23.0468H113.007V22.8002H112.507V22.5135H113.027V22.2668H112.16V23.5668H112.507V23.0468Z" fill="white"/>
<path d="M113.66 22.2668H113.313V23.5668H113.66V22.2668Z" fill="white"/>
<path d="M114.227 23.44C114.3 23.491 114.381 23.5293 114.467 23.5533C114.555 23.5627 114.645 23.5627 114.733 23.5533H114.953L115.113 23.5133V23.2467L114.96 23.2933C114.903 23.2999 114.844 23.2999 114.787 23.2933C114.729 23.3002 114.671 23.3002 114.613 23.2933C114.562 23.2767 114.516 23.2468 114.48 23.2067C114.44 23.1717 114.408 23.1285 114.387 23.08C114.376 23.0227 114.376 22.9639 114.387 22.9067C114.377 22.8516 114.377 22.7951 114.387 22.74C114.407 22.692 114.434 22.6471 114.467 22.6067C114.503 22.5704 114.546 22.541 114.593 22.52C114.649 22.51 114.705 22.51 114.76 22.52C114.818 22.5131 114.876 22.5131 114.933 22.52C114.992 22.5334 115.048 22.5559 115.1 22.5867V22.3067L114.893 22.2667C114.827 22.2597 114.76 22.2597 114.693 22.2667C114.594 22.2664 114.496 22.2798 114.4 22.3067C114.315 22.3328 114.235 22.3759 114.167 22.4333C114.1 22.4929 114.045 22.5655 114.007 22.6467C113.971 22.7404 113.953 22.8398 113.953 22.94C113.95 23.0483 113.973 23.1559 114.02 23.2533C114.075 23.3294 114.146 23.393 114.227 23.44V23.44Z" fill="white"/>
<path d="M115.707 22.2668H115.36V23.5668H115.707V22.2668Z" fill="white"/>
<path d="M116.4 23.2868H116.894L116.994 23.5668H117.374L116.894 22.2668H116.467L115.974 23.5668H116.327L116.4 23.2868ZM116.647 22.5335L116.8 23.0468H116.474L116.647 22.5335Z" fill="white"/>
<path d="M118.473 23.3068H117.939V22.2668H117.593V23.5668H118.473V23.3068Z" fill="white"/>
<path d="M110.333 25.5132H109.8V24.4666H109.453V25.7666H110.333V25.5132Z" fill="white"/>
<path d="M110.946 24.4666H110.6V25.7666H110.946V24.4666Z" fill="white"/>
<path d="M111.46 24.6134C111.393 24.673 111.338 24.7455 111.3 24.8267C111.264 24.9204 111.246 25.0198 111.246 25.12C111.243 25.2283 111.266 25.3359 111.313 25.4334C111.356 25.5133 111.415 25.5837 111.486 25.64C111.56 25.691 111.641 25.7293 111.726 25.7534C111.813 25.7772 111.903 25.7884 111.993 25.7867H112.213L112.38 25.7467V25.48L112.226 25.5334C112.171 25.5399 112.115 25.5399 112.06 25.5334C112 25.5408 111.94 25.5408 111.88 25.5334C111.83 25.5163 111.785 25.4891 111.746 25.4534C111.708 25.4146 111.676 25.3695 111.653 25.32C111.642 25.2628 111.642 25.2039 111.653 25.1467C111.643 25.0916 111.643 25.0351 111.653 24.98C111.673 24.932 111.7 24.8871 111.733 24.8467C111.77 24.8104 111.813 24.781 111.86 24.76C111.915 24.75 111.971 24.75 112.026 24.76C112.084 24.7531 112.142 24.7531 112.2 24.76C112.258 24.7764 112.313 24.7988 112.366 24.8267V24.5467L112.18 24.5C112.116 24.4935 112.051 24.4935 111.986 24.5C111.885 24.4993 111.784 24.5128 111.686 24.54C111.607 24.5507 111.53 24.5755 111.46 24.6134Z" fill="white"/>
<path d="M112.967 25.2266H113.5V24.9799H112.967V24.7132H113.533V24.4666H112.62V25.7666H113.553V25.5199H112.967V25.2266Z" fill="white"/>
<path d="M114.167 24.8799H114.174L114.627 25.7666H115.054V24.4666H114.74L114.747 25.3532H114.74L114.3 24.4666H113.86V25.7666H114.18L114.167 24.8799Z" fill="white"/>
<path d="M115.513 25.1467L115.66 25.2134C115.71 25.2239 115.759 25.2395 115.806 25.26C115.849 25.2724 115.889 25.2904 115.926 25.3134C115.94 25.3247 115.95 25.3391 115.957 25.3553C115.964 25.3715 115.967 25.3891 115.966 25.4067C115.971 25.4264 115.971 25.4469 115.966 25.4667C115.956 25.4853 115.94 25.4995 115.92 25.5067C115.896 25.5135 115.87 25.5135 115.846 25.5067H115.766C115.7 25.5167 115.633 25.5167 115.566 25.5067C115.512 25.4961 115.46 25.4757 115.413 25.4467V25.7334C115.476 25.7537 115.541 25.7671 115.606 25.7734C115.671 25.7798 115.735 25.7798 115.8 25.7734C115.871 25.7802 115.942 25.7802 116.013 25.7734C116.077 25.7623 116.138 25.7397 116.193 25.7067C116.247 25.6752 116.292 25.6319 116.326 25.58C116.357 25.5131 116.373 25.4403 116.373 25.3667C116.377 25.3011 116.361 25.2358 116.326 25.18C116.297 25.1343 116.259 25.0956 116.213 25.0667L116.066 25L115.92 24.96L115.806 24.9134C115.792 24.9058 115.78 24.8943 115.771 24.8801C115.763 24.8659 115.759 24.8497 115.76 24.8334C115.755 24.8228 115.753 24.8115 115.753 24.8C115.753 24.7886 115.755 24.7772 115.76 24.7667C115.776 24.749 115.797 24.7353 115.82 24.7267H115.9H115.973C116.071 24.7329 116.168 24.7531 116.26 24.7867V24.52H116.106H115.926H115.726C115.664 24.5319 115.603 24.5521 115.546 24.58C115.493 24.6115 115.447 24.6548 115.413 24.7067C115.376 24.7641 115.357 24.8316 115.36 24.9C115.357 24.9598 115.37 25.0192 115.399 25.072C115.427 25.1247 115.469 25.169 115.52 25.2L115.513 25.1467Z" fill="white"/>
<path d="M117.527 24.7132V24.4666H116.613V25.7666H117.547V25.5199H116.96V25.2266H117.493V24.9799H116.96V24.7132H117.527Z" fill="white"/>
<path d="M117.854 24.4666V25.7999H118.32C118.423 25.7998 118.526 25.7886 118.627 25.7666C118.716 25.7461 118.8 25.7075 118.874 25.6532C118.941 25.599 118.995 25.5307 119.034 25.4532C119.076 25.3566 119.096 25.2519 119.094 25.1466C119.098 25.0389 119.077 24.9317 119.034 24.8332C118.998 24.7543 118.943 24.6855 118.874 24.6332C118.801 24.5845 118.719 24.5505 118.634 24.5332C118.531 24.5112 118.426 24.5 118.32 24.4999L117.854 24.4666ZM118.627 24.8266C118.666 24.8643 118.695 24.9103 118.714 24.9611C118.732 25.0118 118.739 25.0661 118.734 25.1199C118.738 25.1735 118.73 25.2274 118.712 25.278C118.693 25.3286 118.664 25.3747 118.627 25.4132C118.587 25.4474 118.54 25.4732 118.49 25.4892C118.439 25.5053 118.386 25.5111 118.334 25.5066H118.227V24.7266H118.36C118.458 24.726 118.553 24.7616 118.627 24.8266V24.8266Z" fill="white"/>
<path d="M109.8 27.5333H109.933C110.069 27.5419 110.204 27.5018 110.313 27.42C110.359 27.3838 110.396 27.337 110.42 27.2837C110.445 27.2303 110.456 27.1719 110.453 27.1133C110.457 27.052 110.445 26.9908 110.42 26.9349C110.394 26.8791 110.355 26.8305 110.306 26.7933C110.174 26.7139 110.021 26.6767 109.866 26.6866H109.453V27.9866H109.8V27.5333ZM109.8 26.9333H109.893H109.973C109.997 26.9368 110.02 26.9459 110.039 26.9598C110.059 26.9737 110.075 26.992 110.086 27.0133C110.094 27.0394 110.094 27.0672 110.086 27.0933C110.094 27.1217 110.094 27.1516 110.086 27.18C110.079 27.2032 110.062 27.2224 110.04 27.2333C110.021 27.2509 109.998 27.2625 109.973 27.2666H109.8V26.9333Z" fill="white"/>
<path d="M111.627 27.5334L111.587 27.4467L111.547 27.3867L111.48 27.3534C111.554 27.3398 111.62 27.2994 111.667 27.24C111.708 27.1768 111.729 27.1023 111.727 27.0267C111.731 26.9756 111.719 26.9244 111.693 26.88C111.673 26.8386 111.643 26.8022 111.607 26.7734C111.566 26.7467 111.521 26.7265 111.473 26.7134H111.313H110.693V28.0134H111.04V27.5H111.113H111.193C111.218 27.5055 111.239 27.5197 111.253 27.54C111.275 27.5664 111.293 27.5956 111.307 27.6267C111.307 27.6667 111.307 27.7134 111.353 27.7667L111.427 28H111.787L111.667 27.6467C111.648 27.611 111.635 27.5729 111.627 27.5334V27.5334ZM111.36 27.1734L111.3 27.2134C111.272 27.2202 111.242 27.2202 111.213 27.2134H111.04V26.92H111.227H111.307C111.327 26.9319 111.346 26.9478 111.36 26.9667C111.368 26.9906 111.368 27.0162 111.36 27.04C111.372 27.0746 111.372 27.1121 111.36 27.1467V27.1734Z" fill="white"/>
<path d="M113.12 26.8266C113.064 26.7673 112.996 26.7217 112.92 26.6933C112.83 26.6595 112.735 26.6436 112.64 26.6466C112.542 26.6436 112.445 26.6594 112.353 26.6933C112.277 26.7217 112.209 26.7673 112.153 26.8266C112.096 26.8875 112.052 26.9603 112.026 27.0399C111.998 27.1305 111.985 27.2251 111.986 27.3199C111.986 27.4147 111.999 27.5091 112.026 27.5999C112.052 27.6775 112.096 27.7482 112.153 27.8066C112.207 27.868 112.276 27.914 112.353 27.9399C112.445 27.9732 112.542 27.989 112.64 27.9866C112.735 27.9885 112.83 27.9726 112.92 27.9399C112.997 27.914 113.066 27.868 113.12 27.8066C113.177 27.7482 113.22 27.6775 113.246 27.5999C113.274 27.5091 113.287 27.4147 113.286 27.3199C113.288 27.2251 113.275 27.1305 113.246 27.0399C113.221 26.9603 113.177 26.8875 113.12 26.8266V26.8266ZM112.913 27.4933C112.904 27.5406 112.885 27.5857 112.86 27.6266C112.838 27.6637 112.809 27.6955 112.773 27.7199C112.729 27.7297 112.684 27.7297 112.64 27.7199C112.594 27.7307 112.546 27.7307 112.5 27.7199C112.464 27.6955 112.435 27.6637 112.413 27.6266C112.387 27.5857 112.369 27.5406 112.36 27.4933C112.342 27.3896 112.342 27.2836 112.36 27.1799C112.369 27.1326 112.387 27.0875 112.413 27.0466C112.433 27.0101 112.463 26.98 112.5 26.9599C112.545 26.946 112.594 26.946 112.64 26.9599C112.683 26.947 112.73 26.947 112.773 26.9599C112.81 26.98 112.84 27.0101 112.86 27.0466C112.885 27.0875 112.904 27.1326 112.913 27.1799C112.92 27.233 112.92 27.2869 112.913 27.3399C112.911 27.385 112.905 27.4297 112.893 27.4733L112.913 27.4933Z" fill="white"/>
<path d="M114.6 26.8001C114.525 26.7505 114.441 26.7165 114.353 26.7001C114.251 26.6892 114.148 26.6892 114.046 26.7001H113.56V28.0001H114.033C114.135 28.0106 114.238 28.0106 114.34 28.0001C114.426 27.9788 114.508 27.9402 114.58 27.8867C114.651 27.8363 114.706 27.767 114.74 27.6867C114.782 27.5902 114.802 27.4855 114.8 27.3801C114.803 27.2725 114.783 27.1655 114.74 27.0667C114.721 26.9657 114.672 26.8727 114.6 26.8001ZM114.353 27.6134C114.269 27.6839 114.162 27.7197 114.053 27.7134H113.92V26.9267H114.053C114.162 26.9204 114.269 26.9562 114.353 27.0267C114.389 27.0663 114.416 27.1127 114.433 27.1631C114.45 27.2136 114.457 27.267 114.453 27.3201C114.457 27.3732 114.45 27.4265 114.432 27.4768C114.415 27.5272 114.388 27.5736 114.353 27.6134V27.6134Z" fill="white"/>
<path d="M115.253 27.8667C115.306 27.9109 115.367 27.9427 115.433 27.9601C115.509 27.9707 115.585 27.9707 115.66 27.9601C115.738 27.971 115.816 27.971 115.893 27.9601C115.96 27.9427 116.021 27.9109 116.074 27.8667C116.123 27.8226 116.162 27.7679 116.187 27.7067C116.221 27.6339 116.237 27.5538 116.233 27.4734V26.6667H115.887V27.4134C115.89 27.4556 115.89 27.4979 115.887 27.5401C115.879 27.5743 115.868 27.6078 115.853 27.6401C115.837 27.667 115.814 27.6898 115.787 27.7067C115.75 27.7181 115.71 27.7181 115.673 27.7067C115.639 27.7175 115.602 27.7175 115.567 27.7067C115.538 27.6917 115.515 27.6685 115.5 27.6401C115.481 27.6093 115.468 27.5755 115.46 27.5401C115.457 27.4979 115.457 27.4556 115.46 27.4134V26.6667H115.113V27.4734C115.111 27.5531 115.125 27.6323 115.153 27.7067C115.175 27.7664 115.209 27.8209 115.253 27.8667V27.8667Z" fill="white"/>
<path d="M117.46 27.7133C117.402 27.7198 117.344 27.7198 117.287 27.7133C117.229 27.7234 117.171 27.7234 117.113 27.7133C117.063 27.6957 117.016 27.6677 116.977 27.6309C116.938 27.5941 116.907 27.5495 116.887 27.5C116.865 27.4471 116.853 27.3905 116.853 27.3333C116.853 27.2739 116.865 27.2151 116.887 27.16C116.904 27.1106 116.931 27.0653 116.967 27.0266C117.003 26.9903 117.046 26.961 117.093 26.94C117.148 26.9293 117.205 26.9293 117.26 26.94C117.318 26.933 117.376 26.933 117.433 26.94C117.491 26.9575 117.546 26.9798 117.6 27.0066V26.7266L117.413 26.68C117.347 26.6734 117.28 26.6734 117.213 26.68C117.114 26.6788 117.015 26.6922 116.92 26.72C116.833 26.7486 116.752 26.7914 116.68 26.8466C116.614 26.9061 116.562 26.9788 116.527 27.06C116.491 27.1558 116.472 27.2575 116.473 27.36C116.469 27.4662 116.491 27.5719 116.54 27.6666C116.581 27.748 116.64 27.8188 116.713 27.8733C116.785 27.9268 116.866 27.9653 116.953 27.9866C117.042 27.9997 117.132 27.9997 117.22 27.9866C117.293 27.9941 117.367 27.9941 117.44 27.9866H117.6V27.7133H117.46Z" fill="white"/>
<path d="M117.78 26.9267H118.1V27.9667H118.447V26.9267H118.767V26.6667H117.78V26.9267Z" fill="white"/>
<path d="M106 10V30.5733H122.453V10H106ZM122.273 30.3933H106.18V20.3933H122.273V30.3933ZM122.273 20.2H106.18V10.2H122.273V20.2Z" fill="white"/>
<path d="M46.6136 9.80005H61.947L61.167 14.3067H51.5136L50.847 18.0801H58.667L57.887 22.5867H50.0403L48.667 30.3734H42.9736L46.6136 9.80005Z" fill="white"/>
<path d="M63.9603 9.80005H69.6403L66.0003 30.3734H60.3203L63.9603 9.80005Z" fill="white"/>
<path d="M71.6333 9.80005H86.9667L86.1867 14.3067H76.5333L75.8667 18.0801H83.6533L82.88 22.5867H75.0667L73.7333 30.3734H68L71.6333 9.80005Z" fill="white"/>
<path d="M91.7463 9.77344H98.1196L101.453 30.3734H95.7997L95.333 26.7668H88.193L86.4663 30.3734H80.9863L91.7463 9.77344ZM94.773 22.4401L93.8197 15.0268H93.7063L90.2463 22.4668L94.773 22.4401Z" fill="white"/>
</g>
<defs>
<clipPath id="clip0">
<rect width="122.667" height="40" fill="white"/>
</clipPath>
</defs>
</svg>
